<svg width="20" height="20" viewBox="0 0 20 20" fill="none" xmlns="http://www.w3.org/2000/svg">
<g clip-path="url(#clip0_8054_2742)">
<path fill-rule="evenodd" clip-rule="evenodd" d="M16.6667 2.5H3.33333C3.11232 2.5 2.90036 2.5878 2.74408 2.74408C2.5878 2.90036 2.5 3.11232 2.5 3.33333V16.6667C2.5 16.8877 2.5878 17.0996 2.74408 17.2559C2.90036 17.4122 3.11232 17.5 3.33333 17.5H16.6667C16.8877 17.5 17.0996 17.4122 17.2559 17.2559C17.4122 17.0996 17.5 16.8877 17.5 16.6667V3.33333C17.5 3.11232 17.4122 2.90036 17.2559 2.74408C17.0996 2.5878 16.8877 2.5 16.6667 2.5ZM10.8333 9.16667V5.83333H9.16667L9.16667 9.16667H6.66667L10 12.5L13.3333 9.16667H10.8333ZM13.3333 13.3333V15H6.66667V13.3333H13.3333Z" fill="#68CD67"/>
</g>
<defs>
<clipPath id="clip0_8054_2742">
<rect width="20" height="20" fill="white"/>
</clipPath>
</defs>
</svg>
